<?xml version="1.0" standalone="no"?>
<!DOCTYPE svg PUBLIC "-//W3C//DTD SVG 1.1//EN" "http://www.w3.org/Graphics/SVG/1.1/DTD/svg11.dtd" >
<svg xmlns="http://www.w3.org/2000/svg">
<metadata>Generated by IcoMoon</metadata>
<defs>
<font id="icomoon" horiz-adv-x="512">
<font-face units-per-em="512" ascent="480" descent="-32" />
<missing-glyph horiz-adv-x="512" />
<glyph unicode="&#x20;" d="" horiz-adv-x="256" />
<glyph unicode="&#x2b;" d="M184.857 257.126l37.99 37.99-66.432 66.432 41.728 41.523h-121.242l-0.103-121.063 41.447 41.728 66.611-66.611zM393.753 124.288l-66.611 66.586-37.99-37.99 66.432-66.432-41.728-41.523h121.267l0.077 121.063-41.447-41.702zM327.117 257.152l66.432 66.406 41.523-41.728v121.267l-121.063 0.103 41.728-41.447-66.586-66.611 37.965-37.99zM184.883 190.848l-66.432-66.432-41.523 41.728v-121.241l121.088-0.103-41.728 41.447 66.585 66.611-37.99 37.99z" />
<glyph unicode="&#x2d;" d="M435.072 365.209l-37.99 37.99-66.432-66.432-41.523 41.728v-121.241l121.063-0.102-41.728 41.446zM143.539 149.401l-66.611-66.611 37.99-37.99 66.432 66.432 41.523-41.728v121.241l-121.063 0.103zM435.2 82.918l-66.406 66.432 41.702 41.523h-121.241l-0.103-121.063 41.447 41.728 66.611-66.611zM76.8 365.082l66.407-66.432-41.703-41.523h121.241l0.102 121.063-41.446-41.728-66.611 66.611z" />
<glyph unicode="&#x30;" d="M85.478 283.443h-59.879v-119.526h60.288l118.912-93.517v307.2l-119.322-93.927v-0.231zM439.859 287.36l-18.099 18.099-63.36-63.36-63.36 63.36-18.099-18.099 63.36-63.36-63.36-63.36 18.099-18.099 63.36 63.36 63.36-63.36 18.099 18.099-63.36 63.36 63.36 63.36z" />
<glyph unicode="&#x31;" d="M85.478 283.443h-59.879v-119.526h60.288l118.912-93.517v307.2l-119.322-93.927v-0.231zM394.163 211.098c0 68.839-37.837 128.743-93.798 160.333l-18.355-36.019v-0.87c42.445-24.858 71.117-70.81 71.117-123.443s-28.672-98.611-71.117-123.443v-0.103l18.663-36.608c55.783 31.642 93.491 91.443 93.491 160.154zM342.656 454.4l-18.663-36.633c72.32-40.602 121.344-117.99 121.344-206.669 0-88.55-48.896-165.837-121.063-206.49l18.688-36.608c85.478 47.411 143.437 138.445 143.437 243.097 0 104.832-58.087 195.942-143.744 243.303z" />
<glyph unicode="&#x32;" d="M252.288 135.219l-224.896 166.272c-2.099 1.562-2.407 4.685-0.666 7.014l2.073 2.816c1.715 2.329 4.813 2.969 6.912 1.408l220.288-162.841 220.288 162.867c2.099 1.536 5.197 0.921 6.912-1.408l2.074-2.816c1.715-2.329 1.433-5.478-0.666-7.014l-224.896-166.272c-1.075-0.793-2.432-0.998-3.738-0.691-1.255-0.307-2.611-0.128-3.686 0.666z" />
<glyph unicode="&#x34;" d="M167.219 227.712l166.272 224.896c1.536 2.099 4.685 2.381 7.014 0.666l2.816-2.073c2.329-1.715 2.969-4.813 1.408-6.912l-162.841-220.288 162.867-220.288c1.536-2.099 0.921-5.197-1.408-6.912l-2.816-2.074c-2.329-1.715-5.478-1.433-7.014 0.666l-166.272 224.896c-0.819 1.075-0.999 2.432-0.717 3.712-0.281 1.28-0.102 2.637 0.691 3.712z" />
<glyph unicode="&#x36;" d="M344.781 227.712l-166.272 224.896c-1.561 2.099-4.685 2.407-7.014 0.666l-2.816-2.073c-2.329-1.715-2.97-4.813-1.408-6.912l162.841-220.288-162.867-220.288c-1.536-2.099-0.922-5.197 1.408-6.912l2.816-2.074c2.329-1.715 5.478-1.433 7.014 0.666l166.272 224.896c0.793 1.075 0.998 2.432 0.691 3.738 0.307 1.255 0.128 2.611-0.666 3.686z" />
<glyph unicode="&#x38;" d="M259.712 312.781l224.896-166.272c2.099-1.536 2.381-4.685 0.666-7.014l-2.074-2.816c-1.715-2.329-4.813-2.969-6.912-1.408l-220.288 162.841-220.288-162.867c-2.099-1.536-5.197-0.921-6.912 1.408l-2.073 2.816c-1.715 2.329-1.433 5.478 0.666 7.014l224.896 166.272c1.075 0.819 2.432 0.999 3.712 0.717 1.28 0.282 2.637 0.103 3.712-0.691z" />
<glyph unicode="&#x3c;" d="M256 147.2l115.2 153.6h-230.4l115.2-153.6z" />
<glyph unicode="&#x3e;" d="M256 300.8l-115.2-153.6h230.4l-115.2 153.6z" />
<glyph unicode="&#x61;" d="M503.475 245.325h-226.125v226.151c-0.026 4.71-3.84 8.525-8.55 8.525h-25.6c-4.71 0-8.525-3.815-8.525-8.525v-226.125h-226.15c-4.71-0.025-8.525-3.84-8.525-8.55v-25.6c0-4.711 3.814-8.525 8.525-8.525h226.125v-226.125c0.025-4.736 3.84-8.55 8.55-8.55h25.6c4.711 0 8.525 3.815 8.525 8.525v226.125h226.125c4.711 0 8.525 3.815 8.525 8.525v25.6c0.026 4.736-3.789 8.55-8.499 8.55z" />
<glyph unicode="&#x65;" d="M256 261.888c-21.197 0-38.4-16.973-38.4-37.888s17.203-37.888 38.4-37.888 38.4 16.973 38.4 37.888-17.203 37.888-38.4 37.888zM256 375.526c-127.232 0-230.4-151.526-230.4-151.526s103.168-151.526 230.4-151.526 230.4 151.526 230.4 151.526-103.168 151.526-230.4 151.526zM256 129.305c-53.017 0-96 42.394-96 94.695s42.983 94.695 96 94.695 96-42.394 96-94.695-42.983-94.695-96-94.695z" />
<glyph unicode="&#x66;" d="M463.385 64.512l-102.835 102.835c39.603 64.154 31.744 149.274-23.885 204.903-64.973 64.973-170.343 64.973-235.315 0-64.973-64.973-64.973-170.343 0-235.315 55.629-55.629 140.749-63.462 204.903-23.885l102.835-102.835 54.298 54.298zM144.537 180.096c-41.139 41.139-41.139 107.827 0 148.966s107.827 41.139 148.967 0c41.139-41.139 41.139-107.827 0-148.966-41.139-41.139-107.827-41.139-148.966 0z" />
<glyph unicode="&#x6d;" d="M256 454.4c-316.8 0 0-460.8 0-460.8s316.8 460.8 0 460.8zM256 241.715c-39.45 0-71.475 31.718-71.475 70.886s32.025 70.912 71.475 70.912c39.501 0 71.475-31.719 71.475-70.887s-31.974-70.912-71.475-70.912z" />
<glyph unicode="&#x6f;" d="M256 454.4c-127.232 0-230.4-103.168-230.4-230.4s103.168-230.4 230.4-230.4c127.232 0 230.4 103.168 230.4 230.4 0 127.232-103.168 230.4-230.4 230.4zM256 51.2c-95.257 0-172.8 77.517-172.8 172.8s77.543 172.8 172.8 172.8c95.283 0 172.8-77.517 172.8-172.8 0-95.283-77.517-172.8-172.8-172.8zM284.8 235.929v103.27c0 15.923-12.877 28.8-28.8 28.8s-28.8-12.877-28.8-28.8v-115.303c0.025-7.936 3.251-15.104 8.474-20.301l57.549-57.575c5.632-5.632 13.005-8.423 20.377-8.423 7.373 0 14.745 2.791 20.377 8.423 11.238 11.238 11.238 29.491 0 40.729l-49.178 49.178z" />
<glyph unicode="&#x70;" d="M294.4 377.6v-307.2h76.8v307.2h-76.8zM140.8 70.4h76.8v307.2h-76.8v-307.2z" />
<glyph unicode="&#x71;" d="M64 249.6h384c7.065 0 12.8-5.734 12.8-12.8v-25.6c0-7.065-5.735-12.8-12.8-12.8h-384c-7.066 0-12.8 5.735-12.8 12.8v25.6c0 7.066 5.734 12.8 12.8 12.8z" />
<glyph unicode="&#x73;" d="M332.8 139.725c-12.877 0-24.525-4.915-33.485-12.8l-98.432 56.423c2.279 6.451 3.917 13.184 3.917 20.377 0 9.882-2.841 18.918-6.887 27.264l108.544 95.411c7.68-4.71 16.666-7.526 26.342-7.526 28.288 0 51.2 22.912 51.2 51.2 0 28.288-22.912 51.2-51.2 51.2s-51.2-22.912-51.2-51.2c0-8.038 2.329-15.411 5.658-22.169l-107.034-94.183c-10.88 8.627-24.448 14.003-39.424 14.003-35.353 0-64-28.647-64-64s28.647-64 64-64c17.408 0 32.819 7.347 44.314 18.688l98.304-57.293c-1.050-4.045-1.817-8.217-1.817-12.595 0-28.288 22.912-51.2 51.2-51.2s51.2 22.912 51.2 51.2-22.912 51.2-51.2 51.2z" />
<glyph unicode="&#x74;" d="M120.73 377.6v-384h347.853v384h-347.853zM422.323 98.867h-248.857v227.533h248.883v-227.533zM82.073 416h270.541v-19.2h38.656v57.6h-347.853v-384h57.984v96h-19.328v249.6zM258.867 271.104v-106.547l93.875 53.274-93.875 53.274z" />
<glyph unicode="&#x77;" d="M430.336 386.841c-5.478 4.198-13.337 4.787-17.562 1.28l-156.774-129.459-156.774 129.459c-4.224 3.482-12.083 2.918-17.561-1.28-5.478-4.224-6.477-10.445-2.253-13.927l168.269-138.931c2.099-1.741 5.145-2.483 8.32-2.227 3.175-0.231 6.195 0.487 8.32 2.227l168.269 138.931c4.224 3.482 3.226 9.703-2.253 13.927zM430.336 212.736c-5.478 4.199-13.337 4.787-17.562 1.28l-156.774-129.433-156.774 129.433c-4.224 3.481-12.083 2.918-17.561-1.28-5.478-4.199-6.477-10.445-2.253-13.926l168.269-138.931c2.125-1.741 5.145-2.483 8.32-2.227 3.175-0.231 6.195 0.486 8.32 2.227l168.269 138.931c4.224 3.481 3.226 9.728-2.253 13.926z" />
<glyph unicode="&#x2713;" d="M478.413 357.043l-12.851 12.672c-10.649 10.496-27.93 10.496-38.579 0l-212.198-209.075-129.741 127.795c-10.65 10.496-27.93 10.496-38.579 0l-12.877-12.672c-10.649-10.496-10.649-27.52 0-38.016l143.693-141.568c0.947-0.921 2.15-1.331 3.2-2.099 0.768-1.024 1.178-2.227 2.125-3.149l12.851-12.672c10.649-10.496 27.929-10.496 38.579 0l244.377 240.768c10.649 10.522 10.649 27.52 0 38.016z" />
<glyph unicode="&#xe600;" d="M255.53 471.925c-136.797 0-247.696-110.895-247.696-247.699 0-136.797 110.898-247.697 247.696-247.697 136.803 0 247.696 110.899 247.696 247.696 0 136.804-110.894 247.699-247.697 247.699zM372.024 290.049c-12.135-12.501-55.363-62.869-73.219-88.582 11.426-17.136 23.219-36.075 36.801-51.786 14.635-16.793 20.346-18.584 35.354-22.154-2.512-21.776-17.154-33.923-41.435-33.923-10.002 0-26.788 3.925-34.998 13.572-22.142 25.713-39.296 53.577-57.863 81.784v-93.564h-26.789c-25.004 0-41.081 16.426-41.081 39.999v224.301h26.078c30.714 0 41.791-20.002 41.791-39.642v-111.8c16.072 23.928 32.504 49.651 51.786 70.358 8.565 9.291 15.363 13.222 36.075 13.222h47.5v-1.784z" />
</font>
</defs>
</svg>
