<?xml version="1.0" encoding="utf-8"?>
<svg version="1.1" id="Calque_1" xmlns="http://www.w3.org/2000/svg" xmlns:xlink="http://www.w3.org/1999/xlink" x="0px" y="0px"
	 viewBox="0 0 80 80" enable-background="new 0 0 80 80" xml:space="preserve">

	<defs>
        <style type="text/css"><![CDATA[
            #play, #border {
                fill: rgba(231, 57, 61, 1); /* TERTIARY_COLOR */
            }
            #background {
                fill: rgba(51, 51, 51, 0.5); /* PRIMARY_COLOR */
            }
        ]]></style>
    </defs>

	<path id="background" d="M39.9,76.8c20.4,0,36.9-16.6,36.9-36.9S60.2,3,39.9,3S3,19.5,3,39.9S19.5,76.8,39.9,76.8"/>
	<path id="border" d="M39.9,79.8C17.9,79.8,0,61.9,0,39.9S17.9,0,39.9,0s39.9,17.9,39.9,39.9S61.9,79.8,39.9,79.8zM39.9,76.8c20.4,0,36.9-16.6,36.9-36.9S60.2,3,39.9,3S3,19.5,3,39.9S19.5,76.8,39.9,76.8"/>
	<path id="play" d="M29,19.1c0.9-0.9,2.3-0.9,3.2,0l27.5,19.1c0.9,0.9,0.9,2.3,0,3.2L32.2,60.6c-0.9,0.9-2.3,0.9-3.2,0"/>
</svg>
