<?xml version="1.0" encoding="UTF-8"?>
<!DOCTYPE svg PUBLIC "-//W3C//DTD SVG 1.1//EN" "http://www.w3.org/Graphics/SVG/1.1/DTD/svg11.dtd">

<svg version="1.1" id="Calque_1"
    xmlns="http://www.w3.org/2000/svg"
    xmlns:xlink="http://www.w3.org/1999/xlink"
    x="0px" y="0px" width="96px" height="48px"
    viewBox="0 0 96 48" enable-background="new 0 0 96 48"
    xml:space="preserve">

    <defs>
        <style type="text/css"><![CDATA[
            path {
                fill: rgba(231, 57, 61, 1); /* TERTIARY_COLOR */
            }
        ]]></style>
    </defs>
    
    <path d="M8.849 6.898v10.249c1.473-2.194 2.98-4.552 4.747-6.451 0.786-0.851 1.408-1.211 3.307-1.211h4.355v0.164c-1.113 1.146-5.074 5.763-6.712 8.12 1.047 1.571 2.129 3.306 3.373 4.747 1.343 1.539 1.866 1.703 3.241 2.031-0.229 1.997-1.571 3.11-3.798 3.11-0.917 0-2.455-0.36-3.209-1.245-2.030-2.357-3.602-4.911-5.304-7.497v8.578h-2.455c-2.292 0-3.766-1.505-3.766-3.667v-20.563h2.39c2.816 0 3.831 1.833 3.831 3.634z"/>
    <path d="M29.31 27.753c-3.307 0-6.155-1.964-6.155-6.221v-18.269h2.194c2.717 0 4.028 1.244 4.028 4.289v13.064c0 1.604 0.884 2.096 2.619 2.096h1.375v2.161c-0.001 2.193-2.096 2.88-4.061 2.88z"/>
    <path d="M48.365 22.745c-5.043 9.692-6.32 10.673-10.085 10.673-1.997 0-3.667-1.081-3.667-3.11v-1.506l2.685-0.196c1.637-0.132 2.39-0.786 3.045-2.259-2.586-3.863-5.893-12.049-6.614-16.862h3.241c1.539 0 3.143 0.95 3.503 2.554 0.622 2.848 1.867 6.319 2.816 8.513 1.343-2.717 2.75-7.563 3.143-11.067h2.98c1.801 0 2.652 0.852 2.652 2.292 0 1.898-1.703 7.138-3.699 10.968z"/>
    <path d="M69.776 27.492c-2.75 0-3.602-0.917-3.602-3.667v-6.319c0-2.423-0.818-3.503-2.914-3.503-1.801 0-2.783 1.211-2.783 3.405v10.084h-2.096c-2.652 0-4.125-1.047-4.125-3.667v-6.319c0-5.173 3.438-8.545 9.167-8.545 6.385 0 8.971 3.373 8.971 8.709v9.823h-2.618z"/>
    <path d="M78.123 6.308c0.818-0.622 1.932-1.211 3.241-1.211h0.654v4.387h5.271v2.194c0 1.539-1.637 2.717-3.045 2.717h-2.226v6.516c0 1.211 0.753 1.932 1.964 1.932 1.474 0 2.161-0.131 2.816-0.392h0.164v2.423c0 1.505-1.375 2.881-4.617 2.881-3.077 0-6.385-1.474-6.385-6.417v-11.164c0.001-1.638 0.951-2.947 2.162-3.864z"/>
</svg>
